<svg id="Layer_1" data-name="Layer 1" xmlns="http://www.w3.org/2000/svg" xmlns:xlink="http://www.w3.org/1999/xlink" viewBox="0 0 41.32 57.74">
  <defs>
    <style>
      .cls-1 {
        fill: #fff;
      }

      .cls-2 {
        fill: #fff;
        clip-path: url(#clip-path);
      }
    </style>
    <clipPath id="clip-path" transform="translate(-18.14 -19.18)">
      <rect class="cls-1" x="18.14" y="19.18" width="41.32" height="57.74"/>
    </clipPath>
  </defs>
  <title>logo</title>
  <g class="cls-2">
    <g class="cls-2">
      <path d="M18.16,62.22c0-4.14,0-8.27,0-12.41a2.1,2.1,0,0,1,1.72-2.4c4.07-1,8.06-2.31,12.36-2.15a7.75,7.75,0,0,1,5.21,1.65c0.62,0.55,1.28,1,2,.25,3.09-2.84,6.82-1.94,10.34-1.57a59.47,59.47,0,0,1,7.53,1.8,2.43,2.43,0,0,1,2.09,2.75q-0.08,12.31,0,24.62c0,1.59-.56,2.13-2.15,2.15-4.09.07-8.09-.82-12.15-1-2-.11-4-0.78-5.72.81a1.36,1.36,0,0,1-1.29.11c-3.36-2.28-6.88-.56-10.31-0.41-2.38.1-4.74,0.54-7.14,0.52s-2.54-.06-2.55-2.46c0-4.07,0-8.14,0-12.22h0Z" transform="translate(-18.14 -19.18)"/>
      <path d="M43.05,32.78c-0.73-2.64-1.34-5.21,0-7.88,0.94,3.25,3.43,5.25,5.51,7.56S52.16,37,52.41,40.1c0.17,2-.18,2.29-2.12,1.74a30.77,30.77,0,0,0-7-1.19c-1.79-.07-3,1.45-4.46,1.46s-2.67-1.54-4.46-1.45a27.22,27.22,0,0,0-7.23,1.24c-1.49.49-2,.09-2-1.44C25,33.72,28.11,28.56,33,24.31a28.62,28.62,0,0,1,8.11-4.85c0.39-.16.87-0.51,1.23,0a1.12,1.12,0,0,1-.18,1.09,17.11,17.11,0,0,0-1.4,7.17,6.85,6.85,0,0,0,2.28,5.1" transform="translate(-18.14 -19.18)"/>
    </g>
  </g>
</svg>
